<svg xmlns="http://www.w3.org/2000/svg" viewBox="0 0 1198.446 159.425">
  <defs>
    <style>
      .cls-1 {
        fill: #fff;
      }

      .cls-2 {
        fill: #ff0;
      }

      .cls-3 {
        fill: none;
      }
    </style>
  </defs>
  <title>alt-health-alert-logo</title>
  <g id="Logo">
    <path class="cls-1" d="M126.729,687.884H98.9l12.533-64.873h-66.7L32.2,687.884H4.375L33.689,536.94H61.516L49.408,598.632h66.7l12.108-61.692h27.827Z" transform="translate(-4.375 -530.368)"/>
    <path class="cls-1" d="M194.488,642.94q-.214,1.485-.318,2.756c-.073.848-.106,1.626-.106,2.332q0,9.968,5.1,14.522t17.418,4.558h10.727q4.78,0,9.134-.105t8.5-.212q4.142-.105,9.028-.53l-8.072,20.988q-6.8.636-14.976.848t-18.375.212q-12.745,0-21.348-2.968a35.587,35.587,0,0,1-13.807-8.162,29.563,29.563,0,0,1-7.435-12.4,52.829,52.829,0,0,1-2.23-15.688,84.9,84.9,0,0,1,.531-9.434q.527-4.77,1.593-10.07,3.395-17.172,9.453-27.984t13.913-16.854a45.1,45.1,0,0,1,17.206-8.268,82.2,82.2,0,0,1,19.118-2.226q21.453,0,31.332,7.95t9.877,21.518a48.983,48.983,0,0,1-1.274,10.6q-3.4,15.055-14.869,21.836t-35.049,6.784Zm33.138-47.912q-12.536,0-19.118,6.042T198.1,622.8h21.454a90.879,90.879,0,0,0,10.728-.53,20.768,20.768,0,0,0,7.01-1.908,11.275,11.275,0,0,0,4.142-3.5,20.663,20.663,0,0,0,2.549-5.3,19.785,19.785,0,0,0,.85-3.392,18.618,18.618,0,0,0,.212-2.544,9.164,9.164,0,0,0-3.823-7.738Q237.4,595.028,227.626,595.028Z" transform="translate(-4.375 -530.368)"/>
    <path class="cls-1" d="M332.983,616.864a68.155,68.155,0,0,1,18.056,2.12,29.463,29.463,0,0,1,12.745,7l.638-2.968q.423-2.331.85-5.194a32.884,32.884,0,0,0,.425-4.558q0-7.2-5.1-10.494t-17.206-3.286H324.7q-4.46,0-9.452.106t-11.152.318l8.5-22.26q6.8-.422,15.507-.424h17.63q23.58,0,34.2,8.374t10.621,24.7a42.771,42.771,0,0,1-.531,6.572q-.533,3.394-1.169,7.208l-8.284,44.309q-2.125,10.6-7.435,14.734t-15.719,5.193q-5.527.636-13.383,1.061t-14.656.424q-21.882,0-32.395-7t-10.514-22.049a60.27,60.27,0,0,1,1.487-13.356q3.186-14.414,13.808-22.472T332.983,616.864Zm3.187,19.292q-11.046,0-16.356,3.392t-7.01,12.3a35.441,35.441,0,0,0-.637,5.936q0,7.632,5.2,9.858t16.463,2.227q5.944,0,11.045-.213t9.984-.848l2.124-10.176a38.11,38.11,0,0,0,.85-5.088q.209-2.33.212-3.6,0-7.418-5.2-10.6T336.169,636.156Z" transform="translate(-4.375 -530.368)"/>
    <path class="cls-1" d="M438.555,530.368h27.4L435.369,687.884h-27.4Z" transform="translate(-4.375 -530.368)"/>
    <path class="cls-1" d="M501,655.236q0,5.088,3.187,7.526t10.62,2.438h23.366l-8.709,22.685H508.225q-18.271,0-26.446-7.738T473.6,658.2a48.538,48.538,0,0,1,.425-6.254q.423-3.284,1.063-6.89l18.268-94.34,27.827-3.18-5.735,30.1h35.262l-8.5,22.684H510.987l-9.134,46.64q-.428,2.336-.638,4.558T501,655.236Z" transform="translate(-4.375 -530.368)"/>
    <path class="cls-1" d="M615.707,530.368l-9.984,51.3a28.963,28.963,0,0,1,10.834-5.512,60.607,60.607,0,0,1,16.568-1.908,55.269,55.269,0,0,1,15.294,2.014,33.822,33.822,0,0,1,12.108,6.148,28.19,28.19,0,0,1,7.966,10.494,36.389,36.389,0,0,1,2.867,15.052,65.739,65.739,0,0,1-1.274,12.508l-13.17,67.417h-27.19l12.958-67.84q.423-2.331.744-4.346a23.9,23.9,0,0,0,.318-3.71q0-8.477-4.567-11.766t-13.489-3.286A51.343,51.343,0,0,0,614.326,598a19.2,19.2,0,0,0-7.754,3.6,17.535,17.535,0,0,0-5.1,7.1,56.626,56.626,0,0,0-3.187,11.554l-13.17,67.628h-27.4L588.3,530.368Z" transform="translate(-4.375 -530.368)"/>
    <path class="cls-2" d="M788.451,641l-10.884-76.924L708.956,687.884H680.067L767.584,536.94h29.738l26.34,150.944H795.41Zm-10.884-76.924" transform="translate(-4.375 -530.368)"/>
    <path class="cls-1" d="M877.4,530.368h27.4L874.215,687.884h-27.4Z" transform="translate(-4.375 -530.368)"/>
    <path class="cls-1" d="M939.425,642.94q-.214,1.485-.319,2.756c-.072.848-.105,1.626-.105,2.332q0,9.968,5.1,14.522t17.418,4.558h10.728q4.78,0,9.134-.105t8.5-.212q4.143-.105,9.027-.53l-8.071,20.988q-6.8.636-14.976.848t-18.374.212q-12.746,0-21.349-2.968a35.574,35.574,0,0,1-13.807-8.162,29.558,29.558,0,0,1-7.435-12.4,52.813,52.813,0,0,1-2.23-15.688,85.129,85.129,0,0,1,.53-9.434q.529-4.77,1.594-10.07,3.4-17.172,9.452-27.984t13.914-16.854a45.1,45.1,0,0,1,17.205-8.268,82.2,82.2,0,0,1,19.118-2.226q21.453,0,31.332,7.95t9.877,21.518a48.983,48.983,0,0,1-1.274,10.6q-3.4,15.055-14.869,21.836T964.49,642.94Zm33.137-47.912q-12.536,0-19.117,6.042T943.036,622.8H964.49a90.867,90.867,0,0,0,10.727-.53,20.764,20.764,0,0,0,7.01-1.908,11.269,11.269,0,0,0,4.143-3.5,20.647,20.647,0,0,0,2.549-5.3,19.785,19.785,0,0,0,.85-3.392,18.628,18.628,0,0,0,.213-2.544,9.163,9.163,0,0,0-3.824-7.738Q982.333,595.028,972.562,595.028Z" transform="translate(-4.375 -530.368)"/>
    <path class="cls-1" d="M1095.975,577.22q6.16,0,11.365.212t7.965.424l-8.709,22.472q-3.186-.209-5.947-.318t-5.311-.106a58.42,58.42,0,0,0-11.471.954,15.56,15.56,0,0,0-7.647,3.71,20.576,20.576,0,0,0-4.886,7.42,67.553,67.553,0,0,0-3.4,12.084L1055.4,687.884h-27.189l12.745-65.721q2.757-13.991,7.328-22.79a38.409,38.409,0,0,1,11.258-13.674,39.417,39.417,0,0,1,15.72-6.678A106.7,106.7,0,0,1,1095.975,577.22Z" transform="translate(-4.375 -530.368)"/>
    <path class="cls-1" d="M1153.115,655.236q0,5.088,3.187,7.526t10.62,2.438h23.366l-8.709,22.685h-21.242q-18.271,0-26.446-7.738t-8.178-21.942a48.538,48.538,0,0,1,.425-6.254q.423-3.284,1.063-6.89l18.268-94.34,27.827-3.18-5.735,30.1h35.262l-8.5,22.684H1163.1l-9.134,46.64q-.428,2.336-.638,4.558T1153.115,655.236Z" transform="translate(-4.375 -530.368)"/>
    <polygon class="cls-2" points="782.874 78.951 767.083 134.73 743.126 78.746 782.874 78.951"/>
    <polygon class="cls-2" points="779.566 157.517 748.226 157.896 767.25 115.466 779.566 157.517"/>
    <line class="cls-3" x1="675.692" y1="157.517" x2="819.287" y2="157.517"/>
    <line class="cls-3" x1="779.566" y1="78.758" x2="748.226" y2="78.758"/>
    <line class="cls-3" x1="767.25" y1="91.132" x2="767.25" y2="91.007"/>
  </g>
</svg>
